REM DIRINDEX 1\5,1\2\6,1\2\7,1\3\8,1\3\9,1\4\10,1\4\11,1\4\12
REM DIRNAME cjc026,folder01,folder02,folder03,folder04,folder05,folder06,folder07,folder08,folder09,folder10,folder11
TITLE ""
FILE "EJE_DB3000_5th_5C_22.mp3" MP3
  TRACK 01 AUDIO
    TITLE "0:"
    INDEX 01 00:00:00
  TRACK 02 AUDIO
    TITLE "10:cjc026_10983"
    INDEX 01 00:00:08
  TRACK 03 AUDIO
    TITLE "0:"
    INDEX 01 00:02:01
  TRACK 04 AUDIO
    TITLE "11:cjc026_10984"
    INDEX 01 00:02:41
  TRACK 05 AUDIO
    TITLE "0:"
    INDEX 01 00:03:63
  TRACK 06 AUDIO
    TITLE "12:cjc026_10985"
    INDEX 01 00:04:24
  TRACK 07 AUDIO
    TITLE "0:"
    INDEX 01 00:06:19
  TRACK 08 AUDIO
    TITLE "10:cjc026_10986"
    INDEX 01 00:06:57
  TRACK 09 AUDIO
    TITLE "0:"
    INDEX 01 00:08:53
  TRACK 10 AUDIO
    TITLE "11:cjc026_10987"
    INDEX 01 00:09:13
  TRACK 11 AUDIO
    TITLE "0:"
    INDEX 01 00:10:41
  TRACK 12 AUDIO
    TITLE "12:cjc026_10988"
    INDEX 01 00:11:01
  TRACK 13 AUDIO
    TITLE "0:"
    INDEX 01 00:12:72
  TRACK 14 AUDIO
    TITLE "10:cjc026_10989"
    INDEX 01 00:13:34
  TRACK 15 AUDIO
    TITLE "0:"
    INDEX 01 00:14:65
  TRACK 16 AUDIO
    TITLE "11:cjc026_10990"
    INDEX 01 00:15:27
  TRACK 17 AUDIO
    TITLE "0:"
    INDEX 01 00:16:66
  TRACK 18 AUDIO
    TITLE "12:cjc026_10991"
    INDEX 01 00:17:26
  TRACK 19 AUDIO
    TITLE "0:"
    INDEX 01 00:18:59
  TRACK 20 AUDIO
    TITLE "10:cjc026_10992"
    INDEX 01 00:19:22
  TRACK 21 AUDIO
    TITLE "0:"
    INDEX 01 00:20:55
  TRACK 22 AUDIO
    TITLE "11:cjc026_10993"
    INDEX 01 00:21:15
  TRACK 23 AUDIO
    TITLE "0:"
    INDEX 01 00:22:40
  TRACK 24 AUDIO
    TITLE "12:cjc026_10994"
    INDEX 01 00:23:03
  TRACK 25 AUDIO
    TITLE "0:"
    INDEX 01 00:24:33
  TRACK 26 AUDIO
    TITLE "10:cjc026_10995"
    INDEX 01 00:24:68
  TRACK 27 AUDIO
    TITLE "0:"
    INDEX 01 00:26:42
  TRACK 28 AUDIO
    TITLE "11:cjc026_10996"
    INDEX 01 00:27:05
  TRACK 29 AUDIO
    TITLE "0:"
    INDEX 01 00:28:49
  TRACK 30 AUDIO
    TITLE "12:cjc026_10997"
    INDEX 01 00:29:09
  TRACK 31 AUDIO
    TITLE "0:"
    INDEX 01 00:30:55
  TRACK 32 AUDIO
    TITLE "10:cjc026_10998"
    INDEX 01 00:31:18
  TRACK 33 AUDIO
    TITLE "0:"
    INDEX 01 00:32:59
  TRACK 34 AUDIO
    TITLE "11:cjc026_10999"
    INDEX 01 00:33:19
  TRACK 35 AUDIO
    TITLE "0:"
    INDEX 01 00:34:63
  TRACK 36 AUDIO
    TITLE "12:cjc026_11000"
    INDEX 01 00:35:23
  TRACK 37 AUDIO
    TITLE "0:"
    INDEX 01 00:36:62
  TRACK 38 AUDIO
    TITLE "10:cjc026_11001"
    INDEX 01 00:37:24
  TRACK 39 AUDIO
    TITLE "0:"
    INDEX 01 00:39:07
  TRACK 40 AUDIO
    TITLE "11:cjc026_11002"
    INDEX 01 00:39:42
  TRACK 41 AUDIO
    TITLE "0:"
    INDEX 01 00:41:27
  TRACK 42 AUDIO
    TITLE "12:cjc026_11003"
    INDEX 01 00:41:62
  TRACK 43 AUDIO
    TITLE "0:"
    INDEX 01 00:43:44
  TRACK 44 AUDIO
    TITLE "10:cjc026_11004"
    INDEX 01 00:44:02
  TRACK 45 AUDIO
    TITLE "0:"
    INDEX 01 00:45:29
  TRACK 46 AUDIO
    TITLE "11:cjc026_11005"
    INDEX 01 00:45:64
  TRACK 47 AUDIO
    TITLE "0:"
    INDEX 01 00:47:30
  TRACK 48 AUDIO
    TITLE "12:cjc026_11006"
    INDEX 01 00:47:63
  TRACK 49 AUDIO
    TITLE "0:"
    INDEX 01 00:49:15
  TRACK 50 AUDIO
    TITLE "10:cjc026_11007"
    INDEX 01 00:49:51
  TRACK 51 AUDIO
    TITLE "0:"
    INDEX 01 00:51:03
  TRACK 52 AUDIO
    TITLE "11:cjc026_11008"
    INDEX 01 00:51:38
  TRACK 53 AUDIO
    TITLE "0:"
    INDEX 01 00:52:63
  TRACK 54 AUDIO
    TITLE "12:cjc026_11009"
    INDEX 01 00:53:23
  TRACK 55 AUDIO
    TITLE "0:"
    INDEX 01 00:54:51
  TRACK 56 AUDIO
    TITLE "10:cjc026_11010"
    INDEX 01 00:55:11
  TRACK 57 AUDIO
    TITLE "0:"
    INDEX 01 00:56:41
  TRACK 58 AUDIO
    TITLE "11:cjc026_11011"
    INDEX 01 00:57:01
  TRACK 59 AUDIO
    TITLE "0:"
    INDEX 01 00:58:26
  TRACK 60 AUDIO
    TITLE "12:cjc026_11012"
    INDEX 01 00:58:61
  TRACK 61 AUDIO
    TITLE "0:"
    INDEX 01 01:00:17
  TRACK 62 AUDIO
    TITLE "10:cjc026_11013"
    INDEX 01 01:00:52
  TRACK 63 AUDIO
    TITLE "0:"
    INDEX 01 01:01:74
  TRACK 64 AUDIO
    TITLE "11:cjc026_11014"
    INDEX 01 01:02:34
  TRACK 65 AUDIO
    TITLE "0:"
    INDEX 01 01:03:72
  TRACK 66 AUDIO
    TITLE "12:cjc026_11015"
    INDEX 01 01:04:35
  TRACK 67 AUDIO
    TITLE "0:"
    INDEX 01 01:05:57
  TRACK 68 AUDIO
    TITLE "10:cjc026_11016"
    INDEX 01 01:06:20
  TRACK 69 AUDIO
    TITLE "0:"
    INDEX 01 01:07:45
  TRACK 70 AUDIO
    TITLE "11:cjc026_11017"
    INDEX 01 01:08:05
  TRACK 71 AUDIO
    TITLE "0:"
    INDEX 01 01:09:30
  TRACK 72 AUDIO
    TITLE "12:cjc026_11018"
    INDEX 01 01:09:68
  TRACK 73 AUDIO
    TITLE "0:"
    INDEX 01 01:11:18
  TRACK 74 AUDIO
    TITLE "10:cjc026_11019"
    INDEX 01 01:11:53
  TRACK 75 AUDIO
    TITLE "0:"
    INDEX 01 01:14:30
  TRACK 76 AUDIO
    TITLE "11:cjc026_11020"
    INDEX 01 01:14:68
  TRACK 77 AUDIO
    TITLE "0:"
    INDEX 01 01:16:40
  TRACK 78 AUDIO
    TITLE "12:cjc026_11021"
    INDEX 01 01:17:03
  TRACK 79 AUDIO
    TITLE "0:"
    INDEX 01 01:19:52
